<?xml version="1.0" encoding="UTF-8"?>
<svg version="1.1" xmlns="http://www.w3.org/2000/svg" width="24" height="24">
<path d="M0 0 C1.58206057 0.00667536 3.16410534 0.0186375 4.74609375 0.03515625 C5.55240234 0.03966797 6.35871094 0.04417969 7.18945312 0.04882812 C9.18753131 0.06065107 11.18557158 0.07858711 13.18359375 0.09765625 C13.22601098 2.430604 13.22452312 4.76468192 13.18359375 7.09765625 C12.18359375 8.09765625 12.18359375 8.09765625 10.3359375 8.1953125 C8.28515625 8.16276042 6.234375 8.13020833 4.18359375 8.09765625 C4.18359375 6.77765625 4.18359375 5.45765625 4.18359375 4.09765625 C-1.2242801 5.1955205 -1.2242801 5.1955205 -4.81640625 9.09765625 C-5.27795994 12.71316017 -5.27047508 14.43401719 -3.19140625 17.47265625 C-0.1211315 19.57337055 1.52151491 19.54607407 5.18359375 19.09765625 C7.96925434 18.18508319 7.96925434 18.18508319 10.18359375 17.09765625 C10.84359375 18.08765625 11.50359375 19.07765625 12.18359375 20.09765625 C9.8742596 22.64588704 7.99325525 23.96048721 4.578125 24.5390625 C-0.19523623 24.73875777 -2.91785399 24.7394793 -6.87890625 21.91015625 C-10.19732178 17.09310145 -11.323338 13.81653769 -10.4375 8.03125 C-9.42355616 4.87463239 -7.31550231 3.1594105 -4.81640625 1.09765625 C-3.81640625 0.09765625 -3.81640625 0.09765625 0 0 Z " fill="#FEFEFE" transform="translate(10.81640625,-0.09765625)"/>
</svg>
